<svg xmlns="http://www.w3.org/2000/svg" viewBox="0 0 153.01 175.71"><path d="M24.36,145c2.14,2.55,5.42,3.14,8.78,2a5.34,5.34,0,0,1,3.9.18Q58.3,159.24,79.41,171.6a4.1,4.1,0,0,0,4.79.07q24.64-14.34,49.38-28.5a4.37,4.37,0,0,0,2.52-4.39c-.09-16.63,0-33.26,0-49.89V84.5c4.4,2.58,8.16,4.71,11.81,7,.5.31.72,1.43.72,2.17q.06,26.65,0,53.32a3.69,3.69,0,0,1-1.44,2.72q-20.76,12.63-41.66,25a4.12,4.12,0,0,1-3.07,0c-4.74-1.69-9.14.3-10.39,4.86a7.46,7.46,0,0,0,5.87,9.12c4.16.81,7.92-2.32,8.73-6.88a5.61,5.61,0,0,1,2.36-3.44q20.73-12.66,41.64-25a4.92,4.92,0,0,0,2.84-4.88q-.18-28.22,0-56.43c0-2.49-.93-3.66-2.92-4.8-14.7-8.4-29.34-16.9-44-25.37-.62-.36-1.21-.77-2.37-1.51,4.13-2.39,7.9-4.65,11.76-6.72.5-.27,1.59.23,2.26.62Q141.28,67.56,164.29,81a4,4,0,0,1,1.54,3q.13,23.7,0,47.39a4.06,4.06,0,0,1-1.46,2.69c-3.06,2.5-4.17,5.46-3,8.73a7.48,7.48,0,0,0,6.9,4.95,7.33,7.33,0,0,0,7-5.18c1.06-3.29-.13-6.06-3.24-8.66a4.91,4.91,0,0,1-1.33-3.37c-.08-16-.11-32,0-48,0-2.46-.64-3.89-2.87-5.16q-24.76-14.08-49.37-28.49c-1.81-1.05-3-.54-4.53.34Q92.37,61.63,70.76,74.06c-1.06.61-2.15,1.16-3.86,2.08,0-4.81-.08-9.11.08-13.41,0-.66,1-1.46,1.76-1.89q22.91-13.31,45.88-26.47a4,4,0,0,1,3.34-.1q20.85,11.83,41.55,24c.8.47,1.24,1.94,1.41,3a7.65,7.65,0,0,0,7.2,6.58,7.51,7.51,0,0,0,7.45-6.26,7.12,7.12,0,0,0-4.95-8,7.43,7.43,0,0,0-4.78.08c-2.1,1-3.57.61-5.42-.47-13.9-8.12-27.87-16.11-41.77-24.22a3.7,3.7,0,0,0-4.26-.11q-25,14.58-50.18,29c-1.81,1-2,2.3-2,4q0,25.11,0,50.2v4.13c-4.37-2.56-8.12-4.69-11.77-7a2.91,2.91,0,0,1-.75-2.15c0-17.78-.06-35.55,0-53.32a3.92,3.92,0,0,1,1.71-2.85Q72,38.88,92.74,27.1a4.05,4.05,0,0,1,3,0c3.41,1.32,6.61.8,8.84-1.7a7.27,7.27,0,0,0,1-8.4,7.4,7.4,0,0,0-7.89-3.74c-3.29.7-5.28,3.17-6,6.75a5.32,5.32,0,0,1-2.23,3.2c-13.8,8.09-27.62,16.13-41.55,24a5.24,5.24,0,0,0-3.07,5.34q.16,27.75,0,55.5c0,2.78.85,4.21,3.24,5.56C62.8,122,77.42,130.51,92.07,139c.52.3,1,.67,2,1.38-4,2.34-7.73,4.54-11.5,6.58a2.91,2.91,0,0,1-2.27-.41q-23.24-13.32-46.4-26.79a3.67,3.67,0,0,1-1.48-2.68q-.14-23.85,0-47.7A4,4,0,0,1,34,66.7c2.88-2.36,4.11-5.42,3.13-8.47A7.72,7.72,0,0,0,30,53.05a7.32,7.32,0,0,0-7,5.23c-1,3.2.19,6.08,3,8.46a5.22,5.22,0,0,1,1.54,3.56q.15,24.17,0,48.33a4.59,4.59,0,0,0,2.64,4.66Q55.11,137.49,79.87,152c1.83,1.07,3,.48,4.53-.38q21.55-12.51,43.15-24.94c1.06-.61,2.16-1.16,3.83-2,0,4.83.09,9.14-.1,13.43,0,.72-1.22,1.56-2,2-15.09,8.76-30.19,17.51-45.35,26.13a4.63,4.63,0,0,1-3.87.08q-20.61-11.65-41-23.63a4,4,0,0,1-1.57-2.6c-.54-3.66-2.71-6.32-6.06-7a7.44,7.44,0,0,0-7.69,3.56A7.33,7.33,0,0,0,24.36,145ZM30,64a3.43,3.43,0,1,1,3.42-3.43A3.43,3.43,0,0,1,30,64ZM95.73,20.64a3.43,3.43,0,1,1,3.43,3.43A3.43,3.43,0,0,1,95.73,20.64Zm69.28,40a3.43,3.43,0,1,1,3.43,3.43A3.42,3.42,0,0,1,165,60.65ZM168.44,137a3.43,3.43,0,1,1-3.43,3.42A3.43,3.43,0,0,1,168.44,137Zm-65.85,44.47a3.43,3.43,0,1,1-3.43-3.42A3.43,3.43,0,0,1,102.59,181.48ZM26.52,140.16A3.43,3.43,0,1,1,30,143.58,3.42,3.42,0,0,1,26.52,140.16Z" transform="translate(-22.65 -13.14)" fill="#c926ff"/></svg>
