<?xml version="1.0" standalone="no"?>
<!DOCTYPE svg PUBLIC "-//W3C//DTD SVG 20010904//EN"
 "http://www.w3.org/TR/2001/REC-SVG-20010904/DTD/svg10.dtd">
<svg version="1.0" xmlns="http://www.w3.org/2000/svg"
 width="1072.000000pt" height="1072.000000pt" viewBox="0 0 1072.000000 1072.000000"
 preserveAspectRatio="xMidYMid meet">
<metadata>
Created by potrace 1.11, written by Peter Selinger 2001-2013
</metadata>
<g transform="translate(0.000000,1072.000000) scale(0.100000,-0.100000)"
fill="#000000" stroke="none">
<path d="M6249 8500 c-19 -16 -39 -33 -44 -37 -69 -52 -293 -268 -395 -380
-112 -123 -268 -323 -372 -478 -66 -98 -78 -112 -86 -100 -4 6 -27 40 -51 75
-99 145 -252 348 -301 400 -8 9 -40 45 -70 80 -98 113 -288 299 -400 390 -30
25 -60 50 -68 57 -18 17 -33 8 -62 -35 -65 -97 -195 -350 -255 -497 -82 -200
-170 -464 -191 -569 -3 -16 -21 -81 -40 -148 -4 -14 -21 -6 -97 48 -51 35 -99
68 -107 71 -8 4 -17 10 -20 13 -6 8 -166 109 -260 165 -81 48 -373 197 -420
215 -19 7 -51 19 -70 27 -50 20 -255 91 -257 89 -1 -1 -4 -15 -7 -31 -3 -17
-8 -41 -11 -55 -3 -14 -8 -42 -11 -63 -3 -21 -7 -44 -8 -50 -2 -7 -6 -34 -10
-62 -4 -27 -10 -61 -12 -75 -25 -147 -24 -771 1 -935 9 -55 12 -104 8 -109 -2
-2 -43 7 -91 20 -48 13 -96 26 -107 29 -11 2 -38 9 -60 15 -22 6 -49 13 -60
14 -11 2 -38 9 -60 14 -22 6 -56 14 -75 17 -19 3 -42 8 -50 10 -8 2 -31 6 -50
9 -19 3 -46 8 -60 10 -14 3 -41 7 -60 10 -19 3 -44 7 -55 10 -11 2 -51 7 -90
11 -38 4 -83 9 -100 11 -31 4 -327 4 -405 1 -45 -2 -45 -3 -44 -37 0 -32 4
-57 20 -150 14 -84 88 -360 130 -487 53 -161 110 -302 189 -469 70 -148 76
-162 66 -168 -4 -3 -36 -7 -72 -10 -159 -14 -264 -25 -299 -31 -14 -2 -43 -7
-65 -9 -22 -3 -51 -8 -65 -11 -14 -3 -43 -8 -65 -11 -22 -3 -46 -7 -54 -10 -8
-3 -30 -7 -49 -10 -19 -3 -97 -21 -173 -40 -169 -41 -275 -75 -472 -153 l-27
-11 39 -73 c50 -93 111 -194 167 -275 24 -35 44 -65 44 -68 0 -3 6 -12 13 -19
18 -21 28 -34 72 -95 22 -30 44 -60 50 -66 5 -6 28 -33 50 -60 107 -129 168
-196 317 -342 111 -109 115 -90 -34 -156 -81 -36 -126 -58 -284 -142 -62 -33
-76 -41 -196 -113 -140 -84 -425 -294 -536 -395 l-34 -31 24 -18 c13 -10 37
-31 53 -45 64 -56 134 -112 140 -112 3 0 16 -9 28 -21 35 -33 303 -211 412
-274 55 -31 106 -62 113 -67 6 -6 12 -7 12 -4 0 4 12 -1 28 -12 31 -22 239
-122 327 -158 33 -14 69 -29 80 -34 11 -5 58 -23 105 -40 47 -17 94 -34 105
-39 37 -16 292 -90 365 -106 8 -2 45 -11 82 -19 58 -14 136 -30 253 -51 17 -3
50 -7 75 -10 25 -3 56 -7 70 -10 105 -19 211 -25 465 -30 110 -1 225 1 255 5
30 5 80 11 110 14 30 3 66 8 80 10 14 3 42 7 62 10 21 3 57 10 80 15 24 5 59
12 78 15 19 3 59 12 88 20 29 8 53 14 55 14 1 0 22 5 46 12 25 6 54 13 65 15
12 1 28 5 36 8 8 3 81 26 161 52 135 42 249 85 326 120 17 8 34 15 39 15 22 0
416 198 422 213 2 4 8 7 12 7 13 0 134 72 138 82 2 4 8 8 13 8 9 0 201 126
250 164 15 12 39 30 55 41 33 24 95 74 143 115 19 17 37 30 41 30 5 0 10 6 13
14 3 8 -15 0 -39 -17 -25 -18 -53 -37 -62 -42 -54 -34 -149 -96 -159 -105 -7
-5 -15 -10 -19 -10 -3 0 -18 -8 -32 -19 -25 -17 -143 -81 -292 -158 -99 -51
-354 -158 -482 -202 -99 -34 -223 -74 -238 -76 -3 0 -11 -4 -17 -8 -7 -5 -13
-6 -13 -3 0 2 -15 0 -32 -5 -47 -14 -297 -69 -305 -68 -5 1 -10 0 -13 -1 -7
-2 -37 -8 -86 -15 -22 -3 -52 -7 -65 -10 -208 -33 -558 -37 -814 -9 -44 4
-272 45 -335 59 -14 3 -36 8 -49 11 -14 3 -28 7 -31 9 -4 2 -21 7 -39 10 -62
11 -328 97 -466 152 -140 55 -466 212 -496 239 -8 8 -19 14 -23 14 -19 0 -328
204 -435 288 l-24 19 79 60 c155 117 455 298 636 384 l56 27 107 -74 c58 -41
107 -74 109 -74 2 0 36 -22 77 -49 270 -178 582 -325 869 -411 41 -12 86 -26
100 -31 26 -9 145 -38 190 -46 34 -6 49 -9 90 -17 60 -12 54 -11 200 -32 38
-6 111 -12 235 -20 198 -12 653 -6 755 11 14 2 50 7 80 10 59 7 101 12 140 20
36 8 59 12 110 20 25 4 54 9 65 12 11 2 29 5 40 7 11 2 29 6 40 9 11 3 31 8
45 11 100 17 538 152 528 162 -2 1 -34 -6 -71 -16 -37 -10 -80 -21 -95 -23
-15 -3 -45 -9 -67 -15 -22 -6 -53 -13 -70 -16 -16 -2 -52 -9 -80 -14 -53 -11
-124 -22 -165 -27 -23 -3 -78 -10 -155 -20 -186 -24 -720 -25 -905 0 -14 2
-50 6 -80 9 -30 4 -62 9 -70 11 -8 2 -35 7 -60 10 -168 24 -543 127 -685 190
-16 7 -75 33 -130 56 -101 44 -376 189 -395 209 -3 3 -30 21 -60 40 -107 67
-335 238 -328 246 4 3 268 83 295 89 10 2 59 13 108 25 101 25 107 26 161 34
22 4 46 8 54 11 8 2 35 6 60 9 25 3 54 8 65 10 85 16 138 17 153 3 9 -8 71
-50 137 -94 295 -196 622 -357 950 -469 102 -35 358 -109 408 -118 15 -2 35
-7 45 -10 22 -7 69 -16 107 -22 17 -2 37 -7 45 -10 8 -3 26 -7 40 -9 14 -2 54
-8 90 -14 36 -6 88 -13 115 -17 28 -3 58 -8 67 -9 33 -7 225 -18 313 -19 50
-1 92 -4 95 -7 3 -3 16 -2 30 1 19 5 12 9 -35 15 -33 4 -69 9 -80 11 -19 4
-56 9 -135 19 -19 3 -46 7 -60 10 -14 2 -38 7 -55 10 -16 3 -41 7 -55 10 -172
34 -290 64 -460 118 -36 12 -69 22 -75 23 -24 5 -214 77 -303 115 -109 46
-334 158 -432 214 -36 21 -80 46 -99 57 -94 54 -289 195 -290 210 -1 7 85 4
145 -6 16 -2 58 -7 94 -11 36 -4 79 -9 95 -11 17 -3 41 -7 55 -9 14 -1 25 -4
25 -5 0 -1 14 -3 30 -5 17 -2 46 -6 65 -10 19 -4 44 -9 55 -11 30 -5 54 -10
170 -39 59 -15 112 -28 119 -29 100 -21 196 -62 286 -126 35 -25 72 -49 82
-55 52 -30 165 -100 178 -111 60 -49 628 -324 670 -324 4 0 29 -9 54 -20 89
-38 44 -11 -106 63 -170 84 -346 186 -485 284 -139 96 -127 94 92 -18 201
-102 312 -167 518 -303 41 -28 33 -13 -30 51 -107 109 -257 286 -362 424 -39
52 -75 99 -79 104 -5 6 -17 24 -27 40 l-19 30 24 -20 c23 -18 137 -133 179
-180 128 -144 155 -177 200 -235 19 -25 37 -47 40 -50 8 -6 46 -58 94 -127 22
-31 32 -53 25 -55 -7 -3 -5 -7 5 -11 22 -8 21 4 -3 59 -11 24 -29 64 -40 89
-22 49 -43 97 -45 105 0 3 -15 41 -31 85 -34 87 -43 113 -44 120 0 3 -9 25
-20 50 -11 25 -19 48 -19 50 0 3 -9 37 -21 75 -12 38 -21 72 -21 75 0 2 -6 23
-14 46 -27 77 -14 75 25 -3 47 -96 164 -387 176 -440 1 -5 3 -10 4 -13 1 -3 3
-9 4 -14 0 -5 4 -13 9 -17 4 -4 7 -17 7 -29 0 -12 3 -25 7 -29 4 -3 8 -12 9
-19 3 -21 45 -157 48 -157 2 0 2 24 0 53 -4 63 -4 540 1 652 2 44 3 95 4 114
3 85 17 -5 27 -164 7 -112 6 -476 -1 -562 -3 -40 -2 -73 2 -73 7 0 38 94 58
170 10 39 72 212 110 305 4 11 9 25 11 30 7 31 122 285 128 285 7 0 -79 -303
-101 -360 -4 -8 -7 -17 -8 -20 -1 -3 -5 -14 -9 -25 -4 -11 -12 -33 -18 -50
-16 -47 -30 -84 -61 -155 -9 -19 -23 -55 -33 -80 -9 -25 -21 -50 -25 -55 -12
-16 -32 -72 -21 -60 5 6 30 42 57 80 47 67 174 232 205 266 19 20 173 190 180
198 30 34 110 101 101 84 -16 -32 -185 -257 -245 -328 -28 -33 -60 -71 -71
-84 -11 -14 -72 -78 -136 -143 -64 -65 -114 -120 -110 -122 4 -3 40 18 80 45
41 27 75 49 76 49 1 0 40 25 86 55 46 30 89 55 96 55 6 0 13 4 15 8 5 12 86
57 253 142 219 111 236 115 98 23 -49 -32 -94 -64 -101 -70 -7 -7 -17 -13 -21
-13 -4 0 -18 -9 -31 -20 -13 -11 -28 -20 -35 -20 -7 0 -20 -9 -30 -20 -10 -11
-24 -20 -31 -20 -7 0 -19 -6 -26 -12 -17 -16 -21 -18 -203 -113 -82 -43 -154
-82 -160 -87 -10 -9 103 34 210 81 88 38 448 220 454 229 4 5 21 15 39 23 17
8 32 17 32 20 0 4 8 10 18 13 26 10 72 39 212 136 96 66 108 73 190 108 50 22
161 58 203 66 26 6 46 10 92 20 106 24 224 46 290 56 44 6 91 13 105 15 14 2
61 7 105 10 44 3 101 8 127 10 26 2 50 0 52 -4 3 -3 -32 -31 -77 -61 -45 -30
-84 -57 -87 -60 -3 -3 -39 -27 -80 -52 -369 -227 -738 -387 -1160 -502 -104
-28 -195 -49 -265 -61 -16 -3 -37 -8 -45 -10 -8 -2 -31 -7 -50 -9 -36 -5 -150
-21 -210 -31 -19 -3 -59 -6 -87 -8 -29 -1 -53 -6 -53 -11 0 -16 439 12 610 40
14 2 45 7 70 10 25 3 54 8 65 10 11 3 36 7 55 10 19 3 64 13 100 21 36 8 79
17 95 20 17 3 38 9 48 14 9 5 17 7 17 5 0 -3 11 -1 25 4 14 5 38 12 53 15 39
8 37 8 152 44 95 30 269 93 345 125 110 47 291 132 293 138 2 5 8 8 13 8 8 0
159 80 229 122 19 12 44 26 55 32 11 6 72 45 135 87 63 42 125 81 136 87 20
11 106 9 165 -3 13 -3 47 -8 74 -11 28 -3 53 -8 56 -10 4 -2 24 -7 45 -10 22
-3 44 -7 49 -8 6 -2 37 -8 70 -15 33 -7 83 -19 111 -27 28 -8 60 -16 70 -19
34 -7 214 -64 230 -73 11 -6 -14 -29 -98 -93 -62 -46 -115 -87 -118 -90 -17
-18 -270 -170 -382 -228 -191 -100 -496 -226 -593 -244 -11 -2 -27 -7 -35 -10
-14 -6 -216 -51 -270 -61 -14 -2 -54 -9 -90 -16 -36 -7 -78 -13 -95 -15 -47
-4 -146 -15 -185 -21 -130 -18 -634 -18 -815 1 -27 2 -77 7 -109 11 -33 3 -69
8 -80 10 -12 2 -41 7 -66 10 -25 3 -88 14 -140 25 -52 10 -106 21 -120 23 -14
3 -59 14 -100 25 -88 24 -122 27 -65 5 22 -8 45 -16 50 -18 6 -1 46 -14 90
-28 113 -36 214 -65 255 -74 47 -10 50 -11 53 -14 1 -1 11 -3 22 -5 11 -2 54
-11 95 -20 115 -24 308 -54 446 -70 120 -13 224 -17 449 -17 302 0 394 6 620
42 72 12 139 22 150 24 73 10 311 71 393 100 23 8 45 15 48 15 18 -3 242 91
399 167 135 64 511 286 535 314 15 18 128 90 141 90 16 0 239 -112 281 -141
14 -11 30 -19 35 -19 8 0 230 -140 279 -175 15 -11 54 -42 88 -69 34 -27 62
-50 64 -51 8 -6 -12 -35 -27 -40 -10 -3 -27 -14 -38 -24 -28 -26 -278 -193
-333 -222 -25 -13 -47 -27 -50 -31 -8 -10 -347 -178 -360 -178 -13 0 -53 -22
-62 -35 -4 -5 -8 -7 -8 -4 0 4 -48 -12 -107 -35 -133 -53 -392 -137 -459 -150
-11 -2 -52 -12 -90 -21 -86 -20 -102 -23 -150 -30 -21 -4 -46 -8 -54 -10 -8
-2 -37 -7 -65 -10 -27 -4 -57 -8 -65 -10 -46 -12 -210 -20 -395 -19 -190 0
-256 4 -365 18 -19 2 -59 7 -89 11 -30 4 -61 8 -70 10 -9 1 -56 10 -106 20
-49 9 -126 25 -170 37 -44 11 -84 21 -90 22 -43 11 -85 23 -185 54 -63 20
-119 37 -125 38 -26 6 -253 97 -337 134 -148 65 -410 200 -439 226 -8 8 -19
14 -22 14 -8 0 -100 58 -194 122 -40 27 -73 45 -73 40 0 -5 12 -18 28 -28 15
-9 32 -23 37 -30 12 -14 265 -201 312 -229 17 -11 71 -45 120 -76 310 -197
738 -386 1083 -480 25 -7 47 -13 50 -14 25 -8 59 -17 71 -19 8 -2 25 -6 39 -9
65 -16 209 -46 241 -51 20 -3 42 -8 50 -10 8 -3 37 -8 64 -10 28 -3 61 -8 74
-10 117 -25 650 -26 796 -2 17 3 55 8 85 11 30 4 57 8 60 10 3 2 28 6 55 9 28
4 68 11 90 16 22 5 56 12 75 15 103 18 453 116 540 152 8 3 20 7 26 8 7 2 64
24 127 49 63 25 119 46 125 46 5 0 15 7 22 15 7 8 19 15 27 15 21 0 305 143
428 215 90 53 284 176 310 197 6 4 39 29 75 55 36 25 76 56 90 69 14 12 58 50
98 84 39 34 72 66 72 70 0 5 -26 30 -57 57 -32 26 -64 54 -71 61 -72 68 -321
240 -495 342 -87 52 -438 229 -497 250 -19 7 -39 17 -44 21 -5 4 36 52 90 106
133 133 232 241 324 353 57 70 63 77 99 125 17 22 34 45 38 50 60 78 93 126
93 134 0 5 4 11 9 13 16 6 181 294 181 316 0 18 -282 117 -450 158 -8 2 -35 8
-60 15 -25 6 -52 12 -60 14 -8 2 -35 8 -60 14 -25 5 -56 12 -70 14 -103 19
-150 27 -185 32 -22 3 -53 7 -70 10 -59 9 -205 23 -309 30 -44 3 -81 6 -82 8
-1 1 10 27 25 57 26 55 69 148 114 250 23 52 101 249 102 260 1 3 17 55 37
115 35 107 85 285 94 335 3 14 7 33 10 43 3 10 7 30 9 45 3 15 6 36 9 48 2 12
7 45 11 75 4 30 9 56 11 58 2 2 -1 11 -6 20 -8 15 -29 17 -187 15 -168 -2
-323 -9 -368 -18 -11 -2 -42 -7 -70 -10 -27 -4 -63 -9 -80 -12 -16 -3 -39 -7
-50 -9 -60 -8 -175 -31 -235 -46 -25 -6 -52 -12 -61 -14 -32 -7 -225 -57 -239
-62 -8 -3 -23 -8 -32 -9 -10 -2 -23 -5 -30 -6 -14 -3 -15 22 -5 112 27 222 27
689 1 905 -11 91 -12 100 -18 133 -3 17 -8 47 -11 65 -15 90 -28 153 -34 160
-6 6 -170 -49 -296 -99 -55 -23 -389 -186 -395 -194 -3 -3 -27 -19 -55 -34
-27 -16 -70 -40 -95 -54 -25 -14 -46 -29 -48 -34 -2 -4 -8 -8 -14 -8 -9 0 -89
-54 -260 -174 l-67 -47 -15 53 c-8 29 -31 113 -51 186 -42 156 -105 336 -171
494 -55 130 -157 339 -188 383 -11 17 -20 32 -20 35 1 3 -10 23 -24 45 -13 22
-32 52 -41 68 l-17 27 -35 -30z m-59 -721 c0 -5 14 -39 31 -76 17 -38 42 -91
54 -118 69 -149 203 -514 220 -599 3 -12 -21 -44 -74 -100 -44 -44 -93 -97
-111 -116 -17 -19 -50 -55 -73 -80 -23 -25 -62 -70 -87 -100 -25 -30 -47 -57
-50 -60 -7 -7 -56 -70 -129 -168 -59 -78 -81 -93 -81 -54 0 57 -142 452 -235
652 -65 141 -79 180 -66 190 4 3 24 30 46 60 105 147 189 245 389 451 104 108
144 144 154 137 6 -6 12 -14 12 -19z m-1472 -129 c52 -52 122 -126 155 -165
33 -38 66 -75 71 -82 13 -13 99 -124 166 -212 l48 -64 -50 -106 c-44 -93 -146
-339 -153 -366 -1 -5 -7 -23 -13 -38 -7 -16 -12 -32 -12 -37 0 -5 -5 -21 -12
-37 -6 -15 -13 -35 -14 -43 -2 -8 -19 -62 -37 -119 l-33 -104 -55 74 c-138
187 -230 295 -422 492 -116 119 -125 130 -117 155 5 15 20 65 35 112 15 47 29
92 32 100 3 8 7 20 8 25 4 15 45 128 55 150 5 11 23 54 39 95 38 98 76 180
120 257 l35 63 30 -28 c17 -15 73 -70 124 -122z m-1563 -439 c33 -15 63 -28
67 -29 19 -5 153 -77 156 -84 2 -5 11 -8 21 -8 9 0 21 -4 26 -9 6 -5 37 -24
70 -42 33 -18 62 -35 65 -38 3 -4 16 -12 30 -19 24 -11 50 -27 74 -45 6 -4 40
-26 76 -49 81 -51 110 -77 105 -92 -23 -65 -36 -500 -23 -768 3 -60 3 -108 -1
-108 -7 0 -139 83 -158 99 -7 6 -14 11 -17 11 -2 0 -40 22 -83 49 -43 26 -123
72 -178 101 -55 29 -116 62 -135 74 -19 11 -36 20 -37 19 -1 -1 -43 17 -92 39
l-90 41 -8 46 c-15 95 -7 647 11 738 3 11 8 42 11 67 8 53 6 53 110 7z m4526
27 c0 -7 2 -22 4 -33 2 -11 6 -61 9 -112 2 -51 6 -96 9 -100 2 -4 4 -146 3
-314 -1 -237 -4 -310 -14 -322 -13 -16 -313 -167 -331 -167 -5 0 -11 -4 -13
-8 -1 -4 -48 -33 -103 -64 -55 -31 -140 -82 -190 -114 -49 -31 -104 -65 -121
-76 l-31 -18 6 87 c13 192 5 605 -15 746 -8 60 3 89 47 120 21 15 44 27 49 27
6 0 10 4 10 8 0 5 15 16 33 25 17 10 46 26 62 36 32 19 63 37 164 95 112 64
387 194 414 196 4 0 7 -6 8 -12z m-2224 -628 c108 -221 156 -341 224 -558 27
-86 27 -87 -13 -172 -62 -130 -186 -453 -203 -530 -2 -8 -13 -46 -25 -85 -11
-38 -22 -79 -24 -90 -2 -11 -9 -39 -15 -62 -6 -24 -16 -62 -22 -84 -13 -51
-22 -42 -38 36 -7 33 -17 74 -22 90 -12 38 -59 205 -64 225 -4 18 -77 222 -95
265 -7 17 -16 39 -21 50 -4 11 -32 74 -62 141 -29 66 -52 127 -51 135 1 8 5
31 9 52 7 41 84 265 130 377 35 86 142 305 172 354 l25 38 17 -28 c9 -16 45
-85 78 -154z m1127 -78 c3 -20 8 -62 12 -92 3 -30 8 -66 9 -80 16 -118 24
-447 15 -613 -3 -55 -6 -60 -63 -120 -65 -67 -201 -217 -235 -257 -11 -14 -30
-36 -42 -50 -50 -59 -182 -235 -249 -335 -60 -89 -85 -120 -77 -95 27 82 40
640 22 895 -10 136 -10 141 3 157 6 7 25 31 42 53 121 159 206 255 381 427 88
87 164 156 168 153 5 -3 11 -22 14 -43z m-2392 11 c43 -37 261 -255 318 -318
25 -27 72 -84 105 -125 32 -41 78 -99 101 -128 27 -33 41 -60 39 -73 -8 -42
-18 -281 -17 -434 0 -141 3 -205 17 -395 6 -83 17 -175 21 -182 3 -4 -1 -5 -8
-3 -7 3 -24 24 -37 47 -13 23 -28 47 -32 52 -5 6 -52 72 -106 146 -53 74 -99
137 -103 140 -3 3 -24 27 -45 55 -37 45 -61 73 -138 159 -16 17 -68 72 -116
121 l-88 90 -2 75 c-7 280 3 582 24 690 3 14 7 35 10 48 6 34 16 62 21 62 2 0
19 -12 36 -27z m-2222 -328 c66 -6 80 -8 180 -20 50 -6 110 -15 195 -30 29 -5
146 -28 195 -39 101 -22 161 -40 169 -49 7 -10 47 -140 56 -187 2 -8 4 -15 5
-15 1 0 3 -7 5 -15 1 -8 11 -42 21 -75 10 -33 19 -62 19 -65 1 -3 7 -18 13
-33 7 -16 12 -34 12 -41 0 -7 3 -16 7 -20 4 -3 8 -12 9 -19 2 -10 39 -108 69
-182 5 -11 9 -22 9 -25 1 -3 14 -32 29 -64 31 -66 43 -106 32 -106 -4 0 -41 9
-83 19 -43 11 -89 22 -105 25 -15 3 -35 7 -45 10 -21 7 -230 42 -297 51 -28 3
-64 8 -80 10 -40 5 -219 21 -265 24 -10 1 -30 35 -54 94 -21 50 -45 104 -52
119 -8 15 -15 31 -16 35 0 5 -4 18 -9 31 -5 13 -12 34 -15 48 -3 13 -10 27
-15 30 -5 3 -9 15 -9 28 0 12 -4 26 -8 32 -12 13 -78 230 -89 289 -3 17 -8 37
-13 45 -11 22 -22 89 -15 99 3 5 22 8 43 6 20 -2 66 -6 102 -10z m6936 -17
c-4 -13 -9 -32 -11 -42 -30 -131 -117 -406 -175 -551 -18 -44 -34 -90 -37
-102 -3 -13 -9 -23 -14 -23 -5 0 -9 -7 -9 -15 0 -24 -39 -95 -53 -96 -6 -1
-21 -3 -32 -4 -11 -2 -47 -6 -80 -9 -33 -4 -85 -9 -115 -12 -30 -4 -66 -7 -80
-9 -107 -11 -398 -66 -482 -90 -27 -8 -48 -12 -48 -9 0 3 -8 0 -19 -5 -10 -6
-21 -8 -24 -5 -2 3 16 53 42 112 26 59 64 154 85 212 21 58 42 114 46 125 10
24 51 153 54 169 2 6 10 36 19 66 9 30 18 66 21 80 2 14 11 42 19 62 18 42 19
42 207 83 41 9 84 19 95 21 11 3 37 7 58 9 21 2 41 6 45 8 4 3 36 8 72 11 36
4 108 13 160 19 52 7 133 14 179 16 83 2 84 2 77 -21z m-5637 -308 c124 -55
253 -120 275 -139 10 -9 21 -15 25 -15 5 2 54 -27 247 -142 36 -22 76 -65 80
-87 7 -35 13 -62 14 -62 1 0 3 -10 6 -22 10 -54 117 -365 155 -450 10 -24 19
-45 19 -48 0 -7 86 -189 158 -338 4 -8 -31 3 -38 13 -10 14 -219 160 -228 160
-6 0 -12 3 -14 8 -9 22 -207 136 -453 262 -77 39 -149 79 -160 88 -49 40 -231
563 -260 747 -3 17 -7 44 -10 62 l-6 32 52 -15 c28 -9 90 -33 138 -54z m4360
-3 c-10 -39 -20 -83 -23 -97 -8 -44 -47 -182 -79 -280 -17 -52 -32 -97 -32
-100 -2 -6 -4 -11 -63 -162 -25 -64 -51 -122 -57 -130 -10 -14 -179 -98 -196
-98 -5 0 -9 -4 -9 -10 0 -5 -6 -10 -14 -10 -7 0 -57 -25 -111 -55 -53 -30 -99
-55 -101 -55 -3 0 -32 -18 -65 -40 -33 -22 -63 -40 -66 -40 -7 0 -179 -120
-262 -182 -35 -26 -66 -47 -68 -45 -1 2 26 62 61 133 59 117 134 284 140 309
2 6 6 17 9 25 27 65 85 239 118 355 31 108 46 146 67 165 35 33 269 173 392
235 124 63 317 144 324 137 4 -3 6 -1 6 4 0 5 11 11 24 12 l24 2 -19 -73z
m-1842 -315 c1 -9 5 -51 9 -92 3 -41 7 -91 9 -110 5 -48 5 -445 0 -495 -2 -22
-6 -67 -9 -100 -20 -221 -23 -237 -72 -343 -19 -40 -34 -75 -34 -78 0 -3 -11
-29 -24 -57 -22 -47 -105 -258 -111 -282 -1 -5 -5 -17 -8 -25 -14 -34 -57
-176 -57 -190 0 -8 -6 -27 -14 -41 -7 -14 -17 -43 -21 -65 -11 -55 -12 -56
-24 -84 -11 -24 -11 -24 -6 5 19 115 26 655 11 875 -11 152 -14 125 35 310 70
264 142 462 247 683 54 114 63 125 69 89z m-809 -24 c62 -127 134 -299 177
-423 9 -27 21 -59 25 -70 17 -47 74 -248 86 -303 3 -13 11 -49 20 -80 12 -45
13 -87 8 -202 -14 -278 -6 -815 12 -866 4 -10 4 -16 1 -13 -4 3 -23 63 -42
133 -63 229 -157 486 -258 706 -59 129 -62 145 -83 385 -15 169 -8 612 11 711
2 11 4 29 4 42 1 34 15 27 39 -20z m-673 -363 c69 -69 158 -166 218 -240 69
-84 136 -171 179 -235 29 -41 56 -76 60 -78 4 -2 8 -8 8 -14 0 -5 11 -24 25
-42 35 -47 71 -132 99 -238 13 -51 28 -104 34 -118 5 -14 11 -29 12 -35 4 -17
8 -27 45 -135 21 -58 40 -114 43 -125 3 -11 14 -35 24 -53 10 -18 18 -36 18
-41 0 -5 10 -30 22 -57 12 -27 21 -52 20 -56 -1 -5 2 -8 8 -8 5 0 10 -6 10
-13 0 -7 18 -48 39 -90 22 -42 36 -77 33 -77 -4 1 -25 28 -47 62 -22 34 -45
66 -51 72 -6 6 -23 31 -38 54 -14 23 -35 53 -45 65 -10 12 -54 65 -97 117 -88
108 -125 149 -277 304 -88 91 -116 127 -152 199 -25 49 -48 94 -52 100 -15 23
-95 213 -134 317 -22 58 -43 112 -46 120 -3 8 -8 22 -10 30 -2 8 -23 83 -47
165 -23 83 -41 156 -38 163 5 15 18 5 137 -113z m2242 68 c-8 -26 -19 -64 -23
-83 -4 -19 -9 -39 -10 -45 -5 -24 -76 -236 -99 -295 -37 -100 -46 -125 -46
-127 0 -4 -70 -157 -105 -228 -69 -139 -98 -181 -178 -264 -110 -113 -104
-106 -177 -191 -35 -41 -67 -77 -70 -80 -16 -13 -166 -211 -225 -298 -91 -131
-92 -132 -39 -17 26 55 49 107 52 115 3 8 18 43 34 78 16 34 29 67 29 72 0 6
10 30 21 53 12 23 22 44 22 47 -1 7 1 10 35 115 17 50 42 131 57 180 56 192
77 239 154 355 80 120 188 263 281 371 86 99 290 303 296 296 4 -3 0 -28 -9
-54z m1881 -238 c5 -5 -70 -129 -80 -133 -4 -2 -8 -8 -8 -14 0 -11 -175 -248
-236 -319 -209 -245 -199 -236 -274 -244 -36 -4 -83 -9 -105 -10 -39 -3 -83
-9 -147 -19 -18 -3 -49 -8 -68 -11 -44 -6 -137 -22 -170 -30 -14 -3 -34 -7
-45 -9 -11 -2 -69 -16 -130 -31 -60 -14 -117 -28 -125 -30 -8 -2 -44 -13 -79
-24 -35 -12 -68 -21 -72 -21 -12 0 25 41 151 170 111 112 223 235 261 285 13
17 26 32 30 35 9 7 150 197 187 252 34 50 44 55 163 79 110 23 195 39 224 44
167 25 159 24 270 31 55 4 101 7 102 8 5 4 148 -5 151 -9z m-5858 -9 c41 -4
86 -8 100 -10 14 -2 50 -6 80 -10 63 -8 167 -25 225 -37 22 -4 56 -10 75 -14
102 -18 134 -35 175 -91 22 -31 46 -63 52 -72 26 -35 177 -228 194 -247 79
-92 133 -149 257 -272 79 -78 135 -140 125 -138 -10 2 -76 20 -148 39 -115 32
-282 71 -340 81 -11 2 -47 8 -80 14 -33 5 -80 13 -105 16 -25 3 -56 8 -70 10
-36 5 -145 15 -213 20 -59 3 -59 3 -119 72 -33 37 -65 73 -72 78 -70 61 -406
526 -406 562 0 9 151 8 270 -1z m-659 -18 c5 -9 15 -23 22 -30 16 -17 65 -83
96 -128 13 -19 26 -37 30 -40 3 -3 19 -23 36 -45 16 -22 34 -45 40 -51 5 -7
19 -24 29 -38 11 -15 29 -37 40 -50 12 -12 44 -49 71 -81 28 -32 73 -83 100
-113 90 -98 95 -106 82 -113 -6 -4 -48 -9 -92 -13 -86 -6 -200 -21 -200 -26 0
-1 -16 -3 -35 -5 -81 -7 -350 -66 -485 -105 l-70 -21 -78 83 c-108 115 -270
313 -358 438 -75 106 -122 180 -117 185 5 4 103 35 124 40 10 2 66 16 124 30
119 30 183 43 310 65 81 14 109 18 170 25 30 4 56 8 58 9 1 2 23 2 48 2 32 -1
48 -6 55 -18z m7069 6 c19 -1 44 -5 55 -7 17 -4 90 -15 145 -22 97 -13 500
-113 529 -132 4 -3 -45 -87 -78 -133 -142 -197 -279 -365 -407 -498 l-70 -75
-120 31 c-65 17 -130 33 -144 36 -58 13 -117 26 -140 31 -14 4 -32 7 -40 7 -8
0 -28 4 -45 8 -16 5 -54 11 -84 15 -30 3 -64 8 -75 11 -22 5 -44 8 -161 19
-38 4 -74 11 -78 15 -5 4 5 21 21 38 167 170 324 359 462 555 l83 118 56 -7
c31 -3 72 -8 91 -10z m-5245 -302 c83 -41 186 -95 230 -120 73 -41 382 -242
421 -274 51 -41 115 -113 159 -179 27 -41 55 -78 61 -84 6 -5 24 -28 39 -50
16 -22 34 -44 40 -50 5 -5 30 -35 54 -65 51 -65 165 -190 285 -313 91 -93 107
-116 53 -75 -17 14 -50 37 -72 51 -22 15 -44 30 -50 35 -32 25 -186 122 -194
122 -5 0 -11 4 -13 8 -5 13 -228 134 -388 211 l-145 69 -145 144 c-80 78 -172
172 -204 208 -70 78 -256 323 -256 338 0 6 -4 12 -8 14 -5 2 -23 25 -41 51
l-32 48 28 -7 c15 -4 96 -41 178 -82z m3455 82 c0 -11 -157 -230 -221 -309
-85 -103 -167 -193 -294 -323 l-150 -153 -205 -103 c-213 -107 -332 -177 -560
-329 l-135 -90 92 94 c124 128 149 155 213 229 30 36 57 67 60 70 25 24 230
295 230 304 0 8 38 53 78 93 41 40 236 183 250 183 6 0 12 3 14 8 8 18 210
138 354 210 191 96 274 131 274 116z"/>
</g>
</svg>
